<svg width="50" height="50" viewBox="0 0 50 50" fill="none" xmlns="http://www.w3.org/2000/svg">
<path d="M25.4583 4.1665H24.5417C23.4366 4.1665 22.3768 4.60549 21.5954 5.38689C20.814 6.16829 20.375 7.2281 20.375 8.33317V8.70817C20.3743 9.43885 20.1814 10.1565 19.8157 10.7891C19.45 11.4217 18.9245 11.947 18.2917 12.3123L17.3958 12.8332C16.7624 13.1989 16.0439 13.3914 15.3125 13.3914C14.5811 13.3914 13.8626 13.1989 13.2292 12.8332L12.9167 12.6665C11.9606 12.115 10.8247 11.9653 9.75834 12.2505C8.69202 12.5356 7.7824 13.2322 7.22917 14.1873L6.77084 14.979C6.2193 15.9351 6.06968 17.071 6.35481 18.1373C6.63995 19.2037 7.33654 20.1133 8.29167 20.6665L8.60417 20.8748C9.23391 21.2384 9.75754 21.7604 10.123 22.3891C10.4885 23.0177 10.6831 23.731 10.6875 24.4582V25.5207C10.6904 26.2549 10.4993 26.9768 10.1334 27.6134C9.76758 28.25 9.24002 28.7786 8.60417 29.1457L8.29167 29.3332C7.33654 29.8864 6.63995 30.796 6.35481 31.8623C6.06968 32.9287 6.2193 34.0646 6.77084 35.0207L7.22917 35.8123C7.7824 36.7675 8.69202 37.4641 9.75834 37.7492C10.8247 38.0343 11.9606 37.8847 12.9167 37.3332L13.2292 37.1665C13.8626 36.8008 14.5811 36.6083 15.3125 36.6083C16.0439 36.6083 16.7624 36.8008 17.3958 37.1665L18.2917 37.6873C18.9245 38.0527 19.45 38.578 19.8157 39.2106C20.1814 39.8432 20.3743 40.5608 20.375 41.2915V41.6665C20.375 42.7716 20.814 43.8314 21.5954 44.6128C22.3768 45.3942 23.4366 45.8332 24.5417 45.8332H25.4583C26.5634 45.8332 27.6232 45.3942 28.4046 44.6128C29.186 43.8314 29.625 42.7716 29.625 41.6665V41.2915C29.6258 40.5608 29.8186 39.8432 30.1843 39.2106C30.55 38.578 31.0756 38.0527 31.7083 37.6873L32.6042 37.1665C33.2376 36.8008 33.9561 36.6083 34.6875 36.6083C35.4189 36.6083 36.1374 36.8008 36.7708 37.1665L37.0833 37.3332C38.0394 37.8847 39.1753 38.0343 40.2417 37.7492C41.308 37.4641 42.2176 36.7675 42.7708 35.8123L43.2292 34.9998C43.7807 34.0437 43.9303 32.9078 43.6452 31.8415C43.3601 30.7752 42.6635 29.8656 41.7083 29.3123L41.3958 29.1457C40.76 28.7786 40.2324 28.25 39.8666 27.6134C39.5007 26.9768 39.3096 26.2549 39.3125 25.5207V24.479C39.3096 23.7448 39.5007 23.0229 39.8666 22.3863C40.2324 21.7497 40.76 21.2211 41.3958 20.854L41.7083 20.6665C42.6635 20.1133 43.3601 19.2037 43.6452 18.1373C43.9303 17.071 43.7807 15.9351 43.2292 14.979L42.7708 14.1873C42.2176 13.2322 41.308 12.5356 40.2417 12.2505C39.1753 11.9653 38.0394 12.115 37.0833 12.6665L36.7708 12.8332C36.1374 13.1989 35.4189 13.3914 34.6875 13.3914C33.9561 13.3914 33.2376 13.1989 32.6042 12.8332L31.7083 12.3123C31.0756 11.947 30.55 11.4217 30.1843 10.7891C29.8186 10.1565 29.6258 9.43885 29.625 8.70817V8.33317C29.625 7.2281 29.186 6.16829 28.4046 5.38689C27.6232 4.60549 26.5634 4.1665 25.4583 4.1665Z" fill="white" stroke="#0C062B" stroke-width="2" stroke-linecap="round" stroke-linejoin="round"/>
<path d="M25 31.25C28.4518 31.25 31.25 28.4518 31.25 25C31.25 21.5482 28.4518 18.75 25 18.75C21.5482 18.75 18.75 21.5482 18.75 25C18.75 28.4518 21.5482 31.25 25 31.25Z" fill="#0C062B" stroke="#0C062B" stroke-width="2" stroke-linecap="round" stroke-linejoin="round"/>
</svg>
