<svg width="24" height="24" viewBox="0 0 24 24" fill="none" xmlns="http://www.w3.org/2000/svg">
  <path d="M7.58121 3V21M4.1453 3H11.0171C11.6496 3 12.1624 3.44772 12.1624 4V20C12.1624 20.5523 11.6496 21 11.0171 21H4.1453C3.51277 21 3 20.5523 3 20V4C3 3.44772 3.51277 3 4.1453 3ZM22.9283 18.9C23.1573 19.4 22.8137 20 22.2411 20.2L20.065 20.9C19.4923 21.1 18.8052 20.8 18.5761 20.3L12.2769 5.1C12.0479 4.6 12.3915 4 12.9641 3.8L15.1402 3.1C15.7129 2.9 16.4 3.2 16.6291 3.7L22.9283 18.9Z" stroke="#6e8ef7" stroke-width="1.3" stroke-linecap="round" stroke-linejoin="round"/>
</svg>