<svg width="22" height="21" viewBox="0 0 22 21" fill="none" xmlns="http://www.w3.org/2000/svg">
<g clip-path="url(#clip0_14_1917)">
<path d="M21 16.1936H15.9363M16 19.0508L15.9363 15.0508C15.9363 14.1036 16.2031 13.1952 16.6779 12.5254C17.1527 11.8556 17.7967 11.4794 18.4682 11.4794C19.1396 11.4794 19.7836 11.8556 20.2584 12.5254C20.7333 13.1952 21 14.1036 21 15.0508V19.0508M3.08877 12.7651H10.6806M1 19.0508L6.8642 1.05078L12.7284 19.0508" stroke="#0C062B" stroke-width="1.2" stroke-linecap="round" stroke-linejoin="round"/>
<g clip-path="url(#clip1_14_1917)">
<path d="M-260.734 -335.283C-275.267 -331.416 -285.667 -325.416 -297.134 -313.949C-304.334 -306.883 -308.6 -301.149 -312.067 -294.349C-321.134 -275.949 -321.134 -275.683 -320.734 -176.616L-320.334 -87.9492L-317.134 -82.8826C-315.4 -80.0826 -311.534 -76.2159 -308.6 -74.2159L-303.134 -70.6159H-241H-178.867L-173.4 -74.2159C-170.467 -76.2159 -166.6 -80.0826 -164.867 -82.8826C-161.667 -87.9492 -161.667 -88.2159 -161.267 -133.016L-160.867 -177.949H-110.334H-59.6669L-59.4002 74.3174L-59.0002 326.717L-55.8002 331.784C-54.0669 334.584 -50.2002 338.451 -47.2669 340.451L-41.8002 344.051H20.1998H82.3331L87.3998 340.851C90.1998 339.117 94.0664 335.251 96.0664 332.317L99.6664 326.851V298.051V269.251L96.0664 263.784C90.5998 255.384 84.0664 252.051 73.5331 252.051C66.3331 252.051 63.9331 252.717 59.3998 255.651C50.8665 261.251 47.9331 267.251 47.2664 280.317L46.5998 291.384H20.1998H-6.33356L-6.60022 38.9841L-7.00021 -213.283L-10.2002 -218.349C-11.9335 -221.149 -15.8002 -225.016 -18.7336 -227.016L-24.2002 -230.616H-110.2H-196.334L-201.4 -227.416C-204.2 -225.683 -208.067 -221.816 -210.067 -218.883L-213.667 -213.549L-214.067 -168.349L-214.467 -123.283H-241.134H-267.8L-267.4 -195.016L-267 -266.616L-263.8 -271.683C-262.067 -274.483 -258.2 -278.349 -255.267 -280.349L-249.8 -283.949H20.1998H290.333L295.4 -280.749C298.2 -279.016 302.066 -275.149 304.066 -272.216L307.666 -266.749L308.066 -195.016L308.466 -123.283H281.8H255.133L254.733 -168.349L254.333 -213.549L250.733 -218.883C248.733 -221.816 244.866 -225.683 242.066 -227.416L237 -230.616H151H64.9998L59.9331 -227.416C57.1331 -225.683 53.2664 -221.816 51.2664 -218.883L47.6664 -213.416V-131.283V-49.1492L51.2664 -43.6826C56.7331 -35.4159 63.2664 -31.9492 73.6664 -31.9492C84.0664 -31.9492 90.5998 -35.4159 96.0664 -43.6826L99.6664 -49.1492L100.066 -113.549L100.466 -177.949H151H201.533L201.933 -133.016C202.333 -88.2159 202.333 -87.9492 205.533 -82.8826C207.266 -80.0826 211.133 -76.2159 214.066 -74.2159L219.533 -70.6159H281.533H343.666L348.733 -73.8159C351.533 -75.5493 355.4 -79.4159 357.4 -82.3492L361 -87.8159L361.4 -176.483C361.8 -275.683 361.8 -275.949 352.733 -294.349C349.266 -301.149 345 -306.883 337.8 -313.949C326.2 -325.549 315.933 -331.416 300.866 -335.283C290.733 -337.949 285.266 -337.949 19.7998 -337.816C-242.467 -337.816 -251.267 -337.683 -260.734 -335.283Z" fill="#0C062B"/>
</g>
</g>
<defs>
<clipPath id="clip0_14_1917">
<rect width="22" height="20" fill="white" transform="translate(0 0.0507812)"/>
</clipPath>
<clipPath id="clip1_14_1917">
<rect width="682.667" height="682.667" fill="white" transform="translate(-321 -337.949)"/>
</clipPath>
</defs>
</svg>
