<svg width="22" height="22" viewBox="0 0 22 22" fill="none" xmlns="http://www.w3.org/2000/svg">
<path d="M14.3333 21V12.5787C14.3333 12.2995 14.2163 12.0318 14.0079 11.8344C13.7995 11.637 13.5169 11.5261 13.2222 11.5261H8.77778C8.48309 11.5261 8.20048 11.637 7.9921 11.8344C7.78373 12.0318 7.66667 12.2995 7.66667 12.5787V21M1 9.42074C0.999923 9.11448 1.07037 8.8119 1.20643 8.5341C1.34249 8.25629 1.54089 8.00996 1.78778 7.81227L9.56556 1.49736C9.96665 1.1762 10.4748 1 11 1C11.5252 1 12.0333 1.1762 12.4344 1.49736L20.2122 7.81227C20.4591 8.00996 20.6575 8.25629 20.7936 8.5341C20.9296 8.8119 21.0001 9.11448 21 9.42074V18.8947C21 19.453 20.7659 19.9885 20.3491 20.3834C19.9324 20.7782 19.3671 21 18.7778 21H3.22222C2.63285 21 2.06762 20.7782 1.65087 20.3834C1.23413 19.9885 1 19.453 1 18.8947V9.42074Z" stroke="#0C062B" stroke-width="1.3" stroke-linecap="round" stroke-linejoin="round"/>
</svg>
