<svg width="236" height="148" viewBox="0 0 236 148" fill="none" xmlns="http://www.w3.org/2000/svg">
<path d="M75.2045 62.2727C76.0422 62.2727 76.5086 63.241 75.9864 63.8961L73.6949 66.7705C73.5052 67.0085 73.2174 67.1471 72.913 67.1471H66.0775C65.5252 67.1471 65.0775 67.5948 65.0775 68.1471V80.225C65.0775 80.7772 65.5252 81.225 66.0775 81.225H67.0506C67.3547 81.225 67.6422 81.3633 67.832 81.6009L70.1548 84.5094C70.6778 85.1643 70.2115 86.1335 69.3734 86.1335H55.9529C55.1187 86.1335 54.6512 85.1723 55.1662 84.5161L57.4485 81.6076C57.6381 81.366 57.9282 81.225 58.2352 81.225H59.2031C59.7554 81.225 60.2031 80.7772 60.2031 80.225V68.1471C60.2031 67.5948 59.7554 67.1471 59.2031 67.1471H52.8737C52.5919 67.1471 52.3232 67.0283 52.1337 66.8198L49.5206 63.9454C48.9366 63.303 49.3924 62.2727 50.2606 62.2727H75.2045Z" fill="#0C062B"/>
<path d="M85.4187 73.8622C85.2399 73.8622 85.0715 73.778 84.9642 73.635L82.7555 70.6901C82.2611 70.0308 82.7315 69.0901 83.5555 69.0901H89.759C90.3113 69.0901 90.759 69.5378 90.759 70.0901V80.6231C90.759 80.9743 91.0437 81.259 91.395 81.259C91.5954 81.259 91.7841 81.3535 91.9042 81.514L94.1642 84.5344C94.6575 85.1937 94.187 86.1335 93.3635 86.1335H86.2452C86.1025 86.1335 85.9868 86.0178 85.9868 85.8751C85.9868 85.5623 84.8281 85.2234 84.5906 85.427C84.0347 85.9036 83.3673 86.2484 82.6804 86.338C76.2039 87.1902 73.9542 82.5884 73.9542 77.305V74.4325C73.9542 74.1175 73.6989 73.8622 73.3839 73.8622C73.2062 73.8622 73.0387 73.7794 72.9308 73.6382L70.6831 70.6973C70.1802 70.0392 70.6494 69.0901 71.4776 69.0901H77.7945C78.3468 69.0901 78.7945 69.5378 78.7945 70.0901V77.0668C78.7945 77.0892 78.7939 77.1082 78.7928 77.1306C78.7705 77.5698 78.5976 82.6566 82.5441 82.6566C85.5778 82.6566 85.9868 79.3843 85.9868 76.8959V74.4303C85.9868 74.1166 85.7325 73.8622 85.4187 73.8622Z" fill="#0C062B"/>
<path d="M101.395 80.2024C101.363 84.4388 104.134 84.0954 105.122 83.0742C105.201 82.9928 105.32 82.9585 105.425 83.0005C105.523 83.0396 105.587 83.1351 105.574 83.2396C105.412 84.4989 103.899 86.6107 101.361 86.6107C97.2024 86.6107 96.3844 84.2246 96.3844 79.1798V73.2601C96.3844 72.7078 95.9366 72.2601 95.3844 72.2601H95.2906C94.4529 72.2601 93.9864 71.2917 94.5087 70.6367L99.6133 64.2348C100.203 63.495 101.395 63.9121 101.395 64.8582V68.0901C101.395 68.6423 101.843 69.0901 102.395 69.0901H104.487C105.315 69.0901 105.784 70.0388 105.281 70.6969L104.388 71.8669C104.199 72.1147 103.905 72.2601 103.593 72.2601H102.395C101.843 72.2601 101.395 72.7078 101.395 73.2601V80.2024Z" fill="#0C062B"/>
<path d="M106.187 77.5777C106.187 72.601 110.414 68.5447 115.561 68.5447C120.708 68.5447 124.935 72.601 124.935 77.5777C124.935 82.5884 120.708 86.6448 115.561 86.6448C110.414 86.6448 106.187 82.5884 106.187 77.5777ZM111.403 77.5777C111.403 80.6455 112.732 83.3043 115.561 83.3043C118.424 83.3043 119.754 80.6455 119.754 77.5777C119.754 74.5439 118.424 71.8852 115.561 71.8852C112.732 71.8852 111.403 74.5439 111.403 77.5777Z" fill="#0C062B"/>
<path d="M133.987 69.3178C133.987 69.6603 134.887 69.9273 135.15 69.708C135.941 69.0485 137.025 68.627 138.179 68.6469C141.758 68.681 144.042 71.9874 142.099 74.9189C140.786 76.9387 138.609 76.5648 137.669 76.1941C137.645 76.1847 137.622 76.1744 137.6 76.1627C137.537 76.1306 137.404 76.0606 137.327 76.0097C137.236 75.9549 137.145 75.8806 137.08 75.8234C137.02 75.7713 136.998 75.6902 137.017 75.6136C137.04 75.5236 137.116 75.4584 137.205 75.435C137.413 75.3809 137.585 75.2809 137.668 75.2257C139.1 74.2372 138.077 71.8511 136.339 71.9533C134.123 72.0897 133.987 74.4417 133.987 76.2824V80.7122C133.987 81.0519 134.262 81.3272 134.602 81.3272C134.794 81.3272 134.975 81.4172 135.092 81.5705L137.337 84.529C137.836 85.1875 137.367 86.1335 136.54 86.1335H126.627C125.8 86.1335 125.331 85.1875 125.83 84.529L128.069 81.5795C128.189 81.4206 128.377 81.3272 128.577 81.3272C128.929 81.3272 129.214 81.0417 129.214 80.6894V74.4991C129.214 74.1474 128.929 73.8622 128.578 73.8622C128.378 73.8622 128.189 73.7683 128.069 73.6086L125.82 70.6237C125.323 69.9647 125.793 69.0219 126.618 69.0219H133.691C133.854 69.0219 133.987 69.1543 133.987 69.3178Z" fill="#0C062B"/>
<path d="M144.97 86.1335C144.12 86.1335 143.658 85.1399 144.205 84.4895L146.656 81.5776C146.753 81.4621 146.897 81.3954 147.048 81.3954C147.33 81.3954 147.559 81.1663 147.559 80.8836V74.6729C147.559 74.3946 147.334 74.169 147.055 74.169C146.9 74.169 146.754 74.0974 146.658 73.975L144.081 70.671C143.569 70.0143 144.037 69.056 144.869 69.056H150.922C151.475 69.056 151.922 69.5037 151.922 70.056V80.6644C151.922 81.0681 152.25 81.3954 152.653 81.3954C152.88 81.3954 153.094 81.5007 153.233 81.6805L155.421 84.5235C155.927 85.181 155.459 86.1335 154.629 86.1335H144.97ZM152.604 65.0678C152.604 66.704 151.241 68.0334 149.536 68.0334C147.866 68.0334 146.469 66.704 146.469 65.0678C146.469 63.4657 147.866 62.1363 149.536 62.1363C151.241 62.1363 152.604 63.4657 152.604 65.0678Z" fill="#0C062B"/>
<path d="M175.003 81.3613C175.053 81.461 175.121 81.5789 175.154 81.6351C175.167 81.6572 175.179 81.6789 175.19 81.702C175.659 82.6725 175.999 84.7847 173.742 86.0312C171.795 87.0816 169.809 86.8419 168.451 85.7463C167.846 85.2585 166.729 85.188 166.094 85.6353C165.29 86.2011 164.064 86.747 162.323 86.747C159.391 86.747 156.119 85.4176 156.119 82.1453C156.119 77.925 162.373 76.6141 166.963 75.5627C167.041 75.5449 167.095 75.4759 167.095 75.3961C167.095 73.7599 166.788 71.5784 164.879 71.3057C164.573 71.2716 164.266 71.2716 164.061 71.2716C162.63 71.2716 161.709 72.5669 161.709 73.3509C161.709 73.9068 161.992 74.2745 162.586 74.3938C162.638 74.404 162.69 74.4076 162.742 74.4076H162.834C162.903 74.4076 162.96 74.3966 163.009 74.3813C163.111 74.3489 163.224 74.3627 163.294 74.4446C163.347 74.5064 163.366 74.5916 163.334 74.6666C163.038 75.37 162.124 76.0097 160.448 76.0097C158.676 76.0097 157.074 75.0212 157.074 73.0441C157.074 72.7714 157.108 72.5669 157.142 72.3965C157.551 70.4194 159.63 69.056 162.8 68.6469C163.448 68.5788 164.573 68.5106 164.948 68.5106C167.675 68.5106 172.379 69.1923 172.242 75.6688L172.14 80.5773C172.14 82.1435 173.435 82.2992 173.963 81.8381C174.052 81.7595 174.144 81.6753 174.218 81.5819C174.279 81.5041 174.337 81.3994 174.377 81.2852C174.416 81.173 174.507 81.0794 174.625 81.0663C174.693 81.0588 174.761 81.0781 174.81 81.1254C174.868 81.1815 174.946 81.2661 175.003 81.3613ZM164.232 83.2702C166.537 83.1455 166.992 80.9136 167.053 80.5307C167.059 80.4929 167.061 80.4559 167.061 80.4176V79.0968C167.061 78.4358 166.431 77.9578 165.813 78.1934C163.911 78.9194 162.016 80.1061 162.016 81.3613C162.016 82.3157 162.902 83.3724 164.232 83.2702Z" fill="#0C062B"/>
<path d="M177.219 86.1335C176.393 86.1335 175.923 85.1895 176.421 84.5307L178.598 81.6485C178.719 81.4891 178.907 81.3954 179.107 81.3954C179.459 81.3954 179.744 81.1101 179.744 80.7582V67.6811C179.744 67.3297 179.459 67.0448 179.108 67.0448C178.907 67.0448 178.719 66.9506 178.599 66.7903L176.41 63.8727C175.916 63.2135 176.386 62.2727 177.21 62.2727H183.448C184 62.2727 184.448 62.7204 184.448 63.2727V80.7798C184.448 81.1198 184.724 81.3954 185.064 81.3954C185.256 81.3954 185.437 81.485 185.553 81.6377L187.756 84.5271C188.258 85.1853 187.789 86.1335 186.961 86.1335H177.219Z" fill="#0C062B"/>
</svg>
