<svg width="20" height="22" viewBox="0 0 20 22" fill="none" xmlns="http://www.w3.org/2000/svg">
<path d="M12 1V5C12 5.53043 12.2107 6.03914 12.5858 6.41421C12.9609 6.78929 13.4696 7 14 7H18M6 17V16M10 17V11M14 17V14M13 1H4C3.46957 1 2.96086 1.21071 2.58579 1.58579C2.21071 1.96086 2 2.46957 2 3V19C2 19.5304 2.21071 20.0391 2.58579 20.4142C2.96086 20.7893 3.46957 21 4 21H16C16.5304 21 17.0391 20.7893 17.4142 20.4142C17.7893 20.0391 18 19.5304 18 19V6L13 1Z" stroke="#0C062B" stroke-width="1.3" stroke-linecap="round" stroke-linejoin="round"/>
</svg>
