<svg width="24" height="24" viewBox="0 0 24 24" fill="none" xmlns="http://www.w3.org/2000/svg">
<path d="M21.055 11.4148L20.2828 11.5206C19.434 11.6369 18.7898 10.7716 19.1438 9.99054C19.4892 9.22833 18.8831 8.37695 18.0507 8.45518L17.8015 8.4786C16.921 8.56135 16.2421 7.71705 16.5108 6.87351L16.9012 5.64797C17.3006 4.7573 16.2729 3.90684 15.4743 4.46721L14.6945 5.01443L14.3426 5.24731C13.9645 5.49754 13.4863 5.5415 13.069 5.36439C12.5691 5.15224 12.2444 4.66136 12.2444 4.11778V3.55243M10.1513 5.43679L18.6698 13.754M1 19.9318V22.7584C1 22.9199 1.13076 23.0508 1.29206 23.0508H3.99577C4.07239 23.0508 4.14595 23.0206 4.20057 22.9668L10.0047 17.2515C10.0263 17.2303 10.0415 17.2034 10.0486 17.174L10.1637 16.6989C10.4006 15.721 11.2624 15.023 12.2671 14.9954L12.3162 14.994C12.8922 14.9781 13.4497 15.1985 13.8595 15.6041C14.682 16.4181 16.0055 16.4187 16.8287 15.6052L22.2276 10.2703C23.2534 9.25658 23.2581 7.60028 22.2379 6.58086L17.4637 1.81028C16.4462 0.793585 14.7972 0.798222 13.7854 1.82063L8.40519 7.25753C7.60309 8.06807 7.60613 9.37521 8.41199 10.182C8.80334 10.5738 9.02171 11.1062 9.01835 11.6603L9.01779 11.752C9.01162 12.7686 8.33744 13.6597 7.36167 13.941L6.96215 14.0561C6.93605 14.0636 6.91226 14.0776 6.89295 14.0967L1 19.9318ZM1 19.9318V19.9156" stroke="#6e8ef7"/>
</svg>